<?xml version="1.0" encoding="utf-8"?>
<!-- Generator: Adobe Illustrator 16.0.0, SVG Export Plug-In . SVG Version: 6.00 Build 0)  -->
<!DOCTYPE svg PUBLIC "-//W3C//DTD SVG 1.1//EN" "http://www.w3.org/Graphics/SVG/1.1/DTD/svg11.dtd">
<svg version="1.1" id="Layer_1" xmlns="http://www.w3.org/2000/svg" xmlns:xlink="http://www.w3.org/1999/xlink" x="0px" y="0px"
	 width="1024px" height="1024px" viewBox="0 0 1024 1024" xml:space="preserve">

<g>
	<g>
		<g>
			<g>
				<path fill="#EA2364" d="M827.29,533.801v175.676c-74.39,0-134.673-60.323-134.673-134.711c0-11.404,1.573-22.433,4.24-33.013
					L827.29,533.801z"/>
			</g>
		</g>
		<g>
			<g>
				<path fill="#EA2364" d="M764.23,649.583h63.06v234.91h-63.06V649.583z M368.692,651.197h63.096v216.938h-63.096V651.197z"/>
			</g>
		</g>
		<g>
			<path fill="#EA2364" d="M406.111,510.563c47.23,0,85.512,38.3,85.512,85.53c0,47.228-38.282,85.53-85.512,85.53
				c-47.247,0-85.53-38.303-85.53-85.53C320.581,548.862,358.864,510.563,406.111,510.563z"/>
		</g>
		<g>
			<rect x="320.581" y="528.27" fill="#EA2364" width="231.399" height="67.823"/>
		</g>
		<g>
			<path fill="#EA2364" d="M263.729,204.118c60.021,0,108.696,48.656,108.696,108.675c0,60.022-48.674,108.676-108.696,108.676
				c-60.04,0-108.693-48.654-108.693-108.676c0-42.67,24.59-79.603,60.377-97.382C229.968,208.187,246.36,204.118,263.729,204.118z"
				/>
		</g>
		<g>
			<path fill="#EA2364" d="M237.266,223.287c5.682-72.137,18.587-65.291,35.673-6.416c7.802,26.956-32.992,36.389-32.992,36.389
				L237.266,223.287z"/>
		</g>
		<g>
			<path fill="#EA2364" d="M170.416,237.317c10.561-71.555,22.977-63.865,36.014-3.958c5.964,27.423-35.414,34.064-35.414,34.064
				L170.416,237.317z"/>
		</g>
		<g>
			<path fill="#EA2364" d="M166.477,272.112c-31.304-37.084-32.992-45.205-40.044-57.021c-5.553-9.304-14.349-24.234-37.157-55.989
				c-24.234-33.779-21.231-42.127,5.795-16.355c27.01,25.752,40.476,35.394,51.149,44.096c8.834,7.204,19.301,24.271,35.693,35.168
				c16.412,10.9,53.738,38.713,55.332,46.61C238.857,276.518,166.477,272.112,166.477,272.112z"/>
		</g>
		<g>
			<path fill="#EA2364" d="M198.026,253.26c0,0-51.618,56.309-74.427,73.113c-22.808,16.805-61.221,59.14-61.221,59.14
				s-25.622,24.795-13.617,41.207c12.286,16.789,21.401,33.012,43.609,17.406c22.207-15.605,28.491-22.657,52.818-22.657
				c25.434,0,30.873-10.464,43.215-9.752c17.612,1.011,35.863,1.63,53.869,7.632c20.857,6.961,23.914,6.171,49.368,28.379
				c22.638,19.752,29.127,49.912,29.127,72.138c0,22.228,7.597,85.512,64.692,115.805c57.094,30.291,95.379-184.94,109.051-183.74"
				/>
		</g>
		<g>
			<path fill="#EA2364" d="M175.799,248.984c-8.402-1.2-20.706,14.854-37.512,13.054c-16.806-1.801-15.325,4.333-9.341,7.107
				c5.739,2.665,10.541,6.322,10.541,6.322c-8.402,0-40.458,3.753-21.908,10.354c17.706,6.303,16.038,4.276,16.038,4.276
				s-31.343,13.77-15.138,15.156c17.332,1.481,35.712-3.901,35.712-3.901l34.513-20.445L175.799,248.984z"/>
		</g>
		<g>
			<path fill="#EA2364" d="M813.84,435.893c6.414-3.188,27.554-26.072,43.909-37.476c16.808-11.704,47.585-14.274,70.43,10.262
				c30.312,32.541,34.513,66.772,39.313,94.962c4.804,28.192,8.666,72.23,7.204,92.732l-22.81-35.113l-11.421,31.1l-22.791-43.403
				l-24.007,45.317c0,0,0.168-82.905,2.064-121.543c1.968-40.308-40.965-43.233-59.984-25.507
				c-19.02,17.724-19.6,20.893-19.6,20.893L813.84,435.893z"/>
		</g>
		<g>
			<path fill="#EA2364" d="M288.601,208.601c22.04,10.728,24.404,12.717,34.756,13.88c23.126,2.588,31.53-3.733,31.53-3.733
				c4.652-1.389,10.055,3.021,7.952,9.735c-2.138,6.752-21.964,26.672-40.55,9.658C315.404,231.859,288.601,208.601,288.601,208.601
				z"/>
		</g>
		<g>
			<path fill="#EA2364" d="M288.601,223.775c25.959,12.249,28.716,14.591,41.039,15.679c27.536,2.401,37.757-5.438,37.757-5.438
				c5.609-1.801,11.912,3.338,9.172,11.48c-2.757,8.176-27.046,32.766-48.691,12.828
				C319.867,250.953,288.601,223.775,288.601,223.775z"/>
		</g>
		<g>
			<path fill="#EA2364" d="M335.792,388.645c45.728,8.872,50.682,11.759,71.781,7.317c47.118-10.091,63.437-29.844,63.437-29.844
				c9.301-6.264,20.705-0.149,17.106,16.261c-3.622,16.526-41.678,74.521-81.068,49.218
				C392.456,422.22,335.792,388.645,335.792,388.645z"/>
		</g>
		<g>
			<path fill="#EA2364" d="M286.332,239.154c28.772,18.719,31.641,21.947,46.066,25.266c32.241,7.298,45.614-0.32,45.614-0.32
				c6.94-1.218,13.581,5.891,9.005,15.082c-4.595,9.249-37.363,34.436-59.778,7.296
				C318.949,276.423,286.332,239.154,286.332,239.154z"/>
		</g>
		<g>
			<path fill="#EA2364" d="M286.256,322.023c44.941,24.421,49.255,29.034,72.55,31.472c52.069,5.288,75.027-9.697,75.027-9.697
				c11.554-3.376,21.588,6.772,12.885,22.546c-8.74,15.83-65.816,63.096-99.222,23.785
				C335.154,375.61,286.256,322.023,286.256,322.023z"/>
		</g>
		<g>
			<path fill="#EA2364" d="M295.521,268.922c28.81,17.237,31.587,20.351,46.479,22.732c33.275,5.159,47.849-3.696,47.849-3.696
				c7.39-1.762,13.822,5.084,8.346,14.911c-5.495,9.886-41.695,38.284-63.248,11.913
				C326.995,305.009,295.521,268.922,295.521,268.922z"/>
		</g>
		<g>
			<path fill="#EA2364" d="M320.056,309.585c28.81,17.237,31.585,20.351,46.479,22.734c33.273,5.157,47.848-3.696,47.848-3.696
				c7.39-1.764,13.824,5.083,8.348,14.912c-5.497,9.885-41.697,38.281-63.248,11.91
				C351.529,345.673,320.056,309.585,320.056,309.585z"/>
		</g>
		<g>
			<path fill="#EA2364" d="M303.324,293.624c28.812,17.237,31.586,20.351,46.48,22.735c33.275,5.156,47.849-3.697,47.849-3.697
				c7.39-1.763,13.822,5.083,8.345,14.912c-5.495,9.887-41.695,38.282-63.248,11.911C334.8,329.71,303.324,293.624,303.324,293.624z
				"/>
		</g>
		<g>
			<path fill="#EA2364" d="M362.034,344.003c28.81,17.237,31.585,20.351,46.478,22.734c33.273,5.159,47.848-3.696,47.848-3.696
				c7.388-1.762,13.822,5.083,8.346,14.912c-5.495,9.886-41.697,38.282-63.247,11.913
				C393.506,380.092,362.034,344.003,362.034,344.003z"/>
		</g>
		<g>
			<path fill="#EA2364" d="M414.383,400.519c28.096,4.875,31.304,6.451,43.608,4.048c27.441-5.513,35.695-16.334,35.695-16.334
				c5.099-3.413,12.378-0.058,11.515,8.91c-0.881,9.04-19.207,40.739-44.79,26.896C450.958,418.899,414.383,400.519,414.383,400.519
				z"/>
		</g>
		<path fill="#EA2364" d="M853.303,528.27c0-69.4-56.25-125.632-125.631-125.632h-233.35c-69.38,0-125.629,56.231-125.629,125.632
			l0,0c0,69.379,56.249,125.629,125.629,125.629h233.35C797.053,653.898,853.303,597.648,853.303,528.27L853.303,528.27z"/>
	</g>
</g>
</svg>
